<svg width="58" height="64" viewBox="0 0 58 64" fill="none" xmlns="http://www.w3.org/2000/svg">
<path d="M12.2344 4.32886L15.7796 0H12.1598L10.4059 2.3137L8.61462 0H4.9948L8.53999 4.32886H12.2344ZM11.4881 32.056C16.5633 32.056 20.3697 29.4437 20.3697 24.9283C20.3697 20.1516 16.7872 18.5843 12.7942 17.614L9.99538 16.9423C7.27118 16.2706 5.55457 15.4869 5.55457 13.2851C5.55457 11.3819 7.27118 10.2624 9.65952 10.2624C12.7196 10.2624 15.4065 11.6058 16.7872 14.7032L19.9592 11.6805C18.168 8.24723 14.5108 6.34402 9.92075 6.34402C5.21871 6.34402 1.15107 8.88163 1.15107 13.5837C1.15107 18.323 4.92016 19.9277 8.46535 20.6741L10.8164 21.1965C14.063 21.9055 16.0782 22.5773 16.0782 25.0029C16.0782 27.2793 14.063 28.1749 11.5627 28.1749C8.50267 28.1749 4.73358 26.7569 3.39014 23.0997L0.404713 26.1224C2.34524 30.3394 6.71142 32.056 11.4881 32.056Z" fill="white"/>
<path d="M29.8729 32.0933C32.5225 32.0933 34.3137 30.8618 35.0974 29.705L33.7913 25.9732C33.2689 27.0181 32.224 28.1749 30.8059 28.1749C29.5744 28.1749 28.6414 27.6898 28.6414 25.712V16.7557H34.2018V13.509H28.6414V8.65772L24.4619 11.3073V13.509H21.6257V16.7557H24.4619V26.7195C24.4619 29.9289 26.4397 32.0933 29.8729 32.0933Z" fill="white"/>
<path d="M41.2522 32.056C45.0586 32.056 46.8126 29.2198 47.3723 26.8315V28.1749C47.3723 30.7872 48.9024 31.6828 50.8429 31.6828H53.4178V28.1003H52.261C51.5893 28.1003 51.2907 27.8391 51.2907 27.0181V20.1889C51.2907 15.7108 48.7531 13.1359 44.2377 13.1359C40.2073 13.1359 37.3712 15.2257 35.9531 17.1662L38.4534 20.1516C39.4983 18.2484 41.4015 16.8303 43.8272 16.8303C46.3274 16.8303 47.1484 18.0618 47.2977 19.8904L41.2149 22.4653C38.2668 23.6222 36.4756 25.1895 36.4756 27.7644C36.4756 30.3767 38.2668 32.056 41.2522 32.056ZM40.5059 27.13C40.5059 26.1971 41.1403 25.5627 42.7076 24.8536L47.3723 22.7638V24.7044C47.3723 27.1673 45.5065 28.8093 42.7449 28.8093C41.2149 28.8093 40.5059 28.1749 40.5059 27.13Z" fill="white"/>
<path d="M8.91895 51.2373C13.3971 51.2373 16.4198 48.5504 16.4198 44.7067C16.4198 42.4303 15.3749 40.5644 13.5837 39.4076L16.9796 35.6758L12.9493 34.295L12.0536 38.6612C11.1207 38.3254 10.0758 38.1388 8.91895 38.1388C4.44082 38.1388 1.38076 40.863 1.38076 44.7067C1.38076 47.0204 2.50029 48.9236 4.32886 50.0432C2.64956 51.2 1.23149 52.8047 1.23149 54.4467C1.23149 55.8274 2.0898 56.6857 3.39592 57.0589C1.64198 57.4694 0 58.4023 0 60.119C0 62.3953 2.9481 64 8.02332 64C14.6286 64 17.9872 61.3878 17.9872 57.9545C17.9872 55.2303 16.0093 53.7749 12.3895 53.7749H6.53061C4.85131 53.7749 4.36618 53.2898 4.36618 52.3569C4.36618 51.7225 4.77668 51.0134 5.11254 50.4536C6.19475 50.9761 7.50088 51.2373 8.91895 51.2373ZM8.91895 48.2519C6.94111 48.2519 5.37376 46.9831 5.37376 44.7067C5.37376 42.4303 6.94111 41.1615 8.91895 41.1615C10.8968 41.1615 12.4641 42.4303 12.4641 44.7067C12.4641 46.9831 10.8968 48.2519 8.91895 48.2519ZM8.20991 60.8653C4.88863 60.8653 3.39592 60.0816 3.39592 58.7382C3.39592 58.1038 3.84373 57.5067 4.25423 57.0962H11.8297C13.4344 57.0962 14.2181 57.5067 14.2181 58.477C14.2181 60.007 12.1283 60.8653 8.20991 60.8653Z" fill="white"/>
<path d="M28.6004 57.0589C33.8995 57.0589 37.482 53.2525 37.482 47.6175C37.482 41.9452 33.8995 38.1388 28.6004 38.1388C23.3759 38.1388 19.7934 41.9452 19.7934 47.6175C19.7934 53.2525 23.3759 57.0589 28.6004 57.0589ZM28.6377 53.5883C25.9508 53.5883 24.0849 51.7971 24.0849 47.6175C24.0849 43.4006 25.9508 41.6093 28.6377 41.6093C31.3619 41.6093 33.2278 43.4006 33.2278 47.6175C33.2278 51.7971 31.3619 53.5883 28.6377 53.5883Z" fill="white"/>
<path d="M47.738 57.0962C51.3578 57.0962 52.8879 54.6706 53.4849 51.8717V56.6857H57.6645V31.6828H53.4849V43.4006C52.8879 40.5644 51.2832 38.1388 47.6634 38.1388C43.2599 38.1388 40.4237 41.7586 40.4237 47.6175C40.4237 53.4764 43.2599 57.0962 47.738 57.0962ZM44.7153 47.6175C44.7153 43.5499 46.6931 41.5347 49.3054 41.5347C52.2535 41.5347 53.4849 43.5125 53.4849 46.498V48.7743C53.4849 51.7598 52.2535 53.7003 49.3427 53.7003C46.6931 53.7003 44.7153 51.7225 44.7153 47.6175Z" fill="white"/>
</svg>
